# Blender 3.6.10
# www.blender.org
mtllib RightLeg.mtl
o Right_Leg
v -0.050000 1.950000 -0.499998
v -0.050001 0.050000 -0.500002
v -0.950000 0.050000 -0.500000
v -0.950000 1.950000 -0.500002
v -0.975002 1.950000 0.475000
v -0.975000 0.050000 0.475000
v -0.950000 0.050000 0.500000
v -0.950002 1.950000 0.500000
v -0.025000 0.050000 0.475000
v -0.025000 1.950000 0.475002
v -0.050000 1.950000 0.500002
v -0.050000 0.050000 0.500000
v -1.000000 1.950000 -0.450002
v -1.000000 0.050000 -0.450000
v -1.000000 0.050000 0.450000
v -1.000002 1.950000 0.450000
v 0.000000 1.950000 0.450002
v 0.000000 0.050000 0.450000
v 0.000000 0.050000 -0.450002
v 0.000000 1.950000 -0.449998
v -0.025001 0.050000 -0.475002
v -0.024998 1.950000 -0.475000
v -0.037215 1.967274 0.462786
v -0.055177 1.975000 0.469824
v -0.944823 1.975000 -0.469824
v -0.055176 1.975000 -0.469822
v -0.055178 0.025000 -0.469824
v -0.944824 0.025000 -0.469822
v -0.969824 1.975000 0.444823
v -0.969822 1.975000 -0.444824
v -0.969824 0.025000 -0.444822
v -0.969823 0.025000 0.444824
v -0.030176 1.975000 -0.444823
v -0.030177 1.975000 0.444824
v -0.944824 1.975000 0.469823
v -0.975002 0.050000 -0.475000
v -0.975000 1.950000 -0.475002
v -0.945341 0.025000 0.469306
v -0.055177 0.025000 0.469823
v -0.030177 0.025000 0.444823
v -0.030178 0.025000 -0.444824
v -0.060355 2.000000 0.439646
v -0.939646 2.000000 0.439645
v -0.060354 2.000000 -0.439645
v -0.939645 2.000000 -0.439646
v -0.037214 1.967274 -0.462785
v -0.962785 1.967274 -0.462786
v -0.962786 1.967274 0.462785
v -0.962785 0.032726 0.462786
v -0.939646 0.000000 0.439646
v -0.060355 0.000000 0.439645
v -0.939646 -0.000000 -0.439645
v -0.060355 -0.000000 -0.439646
v -0.962787 0.032726 -0.462785
v -0.037216 0.032726 -0.462786
v -0.037214 0.032726 0.462785
vn 0.0269 0.0155 -0.9995
vn 0.0269 -0.0155 -0.9995
vn -0.0269 -0.0155 -0.9995
vn -0.0269 0.0155 -0.9995
vn -0.7071 0.0088 0.7071
vn -0.7071 -0.0087 0.7071
vn -0.0269 -0.0156 0.9995
vn -0.0269 0.0155 0.9995
vn 0.7071 -0.0088 0.7071
vn 0.7071 0.0088 0.7071
vn 0.0269 0.0155 0.9995
vn 0.0269 -0.0156 0.9995
vn -0.9995 0.0155 -0.0269
vn -0.9995 -0.0155 -0.0269
vn -0.9995 -0.0155 0.0269
vn -0.9995 0.0155 0.0269
vn 0.9995 0.0155 0.0269
vn 0.9995 -0.0155 0.0269
vn 0.9995 -0.0155 -0.0269
vn 0.9995 0.0155 -0.0269
vn 0.7071 -0.0088 -0.7071
vn 0.7071 0.0087 -0.7071
vn 0.5000 0.7071 0.5000
vn 0.0117 0.7710 0.6367
vn -0.0117 0.7710 -0.6367
vn 0.0116 0.7710 -0.6367
vn 0.0117 -0.7710 -0.6367
vn -0.0116 -0.7710 -0.6367
vn -0.6367 0.7710 0.0117
vn -0.6367 0.7710 -0.0117
vn -0.6367 -0.7710 -0.0116
vn -0.6367 -0.7710 0.0116
vn 0.6367 0.7710 -0.0116
vn 0.6367 0.7710 0.0117
vn -0.0117 0.7710 0.6367
vn -0.7071 -0.0088 -0.7071
vn -0.7071 0.0088 -0.7071
vn -0.0117 -0.7710 0.6367
vn 0.0115 -0.7710 0.6367
vn 0.6367 -0.7710 0.0116
vn 0.6367 -0.7710 -0.0117
vn 0.0272 0.9993 0.0272
vn -0.0272 0.9993 0.0272
vn 0.0272 0.9993 -0.0272
vn -0.0272 0.9993 -0.0272
vn 0.5000 0.7071 -0.5000
vn -0.5000 0.7071 -0.5000
vn -0.5000 0.7071 0.5000
vn -0.5000 -0.7071 0.5000
vn -0.0272 -0.9993 0.0272
vn 0.0272 -0.9993 0.0272
vn -0.0272 -0.9993 -0.0272
vn 0.0272 -0.9993 -0.0272
vn -0.5000 -0.7071 -0.5000
vn 0.5000 -0.7071 -0.5000
vn 0.5000 -0.7071 0.5000
vt 0.395123 0.250854
vt 0.395123 0.108037
vt 0.461330 0.108037
vt 0.461330 0.250854
vt 0.544262 0.250853
vt 0.544262 0.108011
vt 0.548235 0.108011
vt 0.548235 0.250853
vt 0.618422 0.108011
vt 0.618422 0.250853
vt 0.614449 0.250853
vt 0.614449 0.108011
vt 0.318573 0.250859
vt 0.318573 0.107999
vt 0.384789 0.107999
vt 0.384789 0.250859
vt 0.471678 0.250855
vt 0.471678 0.107998
vt 0.537867 0.107998
vt 0.537867 0.250855
vt 0.541839 0.107998
vt 0.541839 0.250855
vt 0.618422 0.254784
vt 0.614449 0.254784
vt 0.461330 0.254784
vt 0.395123 0.254784
vt 0.395123 0.104105
vt 0.461330 0.104105
vt 0.384789 0.254791
vt 0.318573 0.254791
vt 0.318573 0.104067
vt 0.384789 0.104067
vt 0.537867 0.254787
vt 0.471678 0.254787
vt 0.548235 0.254784
vt 0.465303 0.108037
vt 0.465303 0.250854
vt 0.467707 0.250855
vt 0.467707 0.107998
vt 0.388758 0.107999
vt 0.388758 0.250859
vt 0.391151 0.250854
vt 0.391151 0.108037
vt 0.314600 0.250859
vt 0.314600 0.107999
vt 0.548235 0.104079
vt 0.614449 0.104079
vt 0.471678 0.104066
vt 0.537867 0.104066
vt 0.614456 0.261152
vt 0.548229 0.261152
vt 0.548229 0.257180
vt 0.614456 0.257180
vt 0.614456 0.327366
vt 0.618431 0.261152
vt 0.618420 0.327366
vt 0.548229 0.327366
vt 0.544265 0.327366
vt 0.544255 0.261152
vt 0.614456 0.331339
vt 0.548229 0.331339
vt 0.467707 0.254787
vt 0.618431 0.257180
vt 0.541839 0.254787
vt 0.391151 0.254784
vt 0.618431 0.331339
vt 0.465303 0.254784
vt 0.314600 0.254791
vt 0.544255 0.331339
vt 0.388758 0.254791
vt 0.544262 0.254784
vt 0.544255 0.257180
vt 0.548235 0.104080
vt 0.544262 0.104080
vt 0.548233 0.097716
vt 0.614452 0.097716
vt 0.614452 0.101690
vt 0.548233 0.101690
vt 0.548233 0.031491
vt 0.544260 0.097716
vt 0.544270 0.031491
vt 0.614452 0.031491
vt 0.618415 0.031491
vt 0.618425 0.097716
vt 0.548233 0.027518
vt 0.614452 0.027518
vt 0.537867 0.104067
vt 0.537867 0.107998
vt 0.541839 0.104067
vt 0.544260 0.101690
vt 0.471678 0.104067
vt 0.467707 0.104067
vt 0.461330 0.104106
vt 0.465303 0.104106
vt 0.544260 0.027518
vt 0.395124 0.104106
vt 0.391151 0.104106
vt 0.395124 0.108037
vt 0.384785 0.104068
vt 0.384785 0.107999
vt 0.388758 0.104068
vt 0.618425 0.027518
vt 0.318573 0.104068
vt 0.314600 0.104068
vt 0.614449 0.104080
vt 0.618422 0.104080
vt 0.618425 0.101690
s 1
usemtl RightLeg.001
f 1/1/1 2/2/2 3/3/3 4/4/4
f 5/5/5 6/6/6 7/7/7 8/8/8
f 9/9/9 10/10/10 11/11/11 12/12/12
f 8/8/8 7/7/7 12/12/12 11/11/11
f 13/13/13 14/14/14 15/15/15 16/16/16
f 17/17/17 18/18/18 19/19/19 20/20/20
f 21/21/21 22/22/22 20/20/20 19/19/19
f 11/11/11 10/10/10 23/23/23 24/24/24
f 25/25/25 26/26/26 1/1/1 4/4/4
f 27/27/27 28/28/28 3/3/3 2/2/2
f 29/29/29 30/30/30 13/13/13 16/16/16
f 31/31/31 32/32/32 15/15/15 14/14/14
f 33/33/33 34/34/34 17/17/17 20/20/20
f 24/24/24 35/35/35 8/8/8 11/11/11
f 36/36/36 37/37/37 4/4/4 3/3/3
f 18/18/18 17/17/17 10/38/10 9/39/9
f 16/16/16 15/15/15 6/40/6 5/41/5
f 2/2/2 1/1/1 22/42/22 21/43/21
f 14/14/14 13/13/13 37/44/37 36/45/36
f 12/12/12 7/7/7 38/46/38 39/47/39
f 19/19/19 18/18/18 40/48/40 41/49/41
f 42/50/42 43/51/43 35/52/35 24/53/24
f 44/54/44 42/50/42 34/55/34 33/56/33
f 43/51/43 45/57/45 30/58/30 29/59/29
f 45/57/45 44/54/44 26/60/26 25/61/25
f 45/57/45 43/51/43 42/50/42 44/54/44
f 17/17/17 34/34/34 23/62/23 10/38/10
f 34/55/34 42/50/42 24/53/24 23/63/23
f 20/20/20 22/22/22 46/64/46 33/33/33
f 1/1/1 26/26/26 46/65/46 22/42/22
f 26/60/26 44/54/44 33/56/33 46/66/46
f 4/4/4 37/37/37 47/67/47 25/25/25
f 13/13/13 30/30/30 47/68/47 37/44/37
f 30/58/30 45/57/45 25/61/25 47/69/47
f 16/16/16 5/41/5 48/70/48 29/29/29
f 8/8/8 35/35/35 48/71/48 5/5/5
f 35/52/35 43/51/43 29/59/29 48/72/48
f 7/73/7 6/74/6 49/6/49 38/7/38
f 50/75/50 51/76/51 39/77/39 38/78/38
f 52/79/52 50/75/50 32/80/32 31/81/31
f 51/76/51 53/82/53 41/83/41 40/84/40
f 53/82/53 52/79/52 28/85/28 27/86/27
f 53/82/53 51/76/51 50/75/50 52/79/52
f 15/87/15 32/88/32 49/21/49 6/89/6
f 32/80/32 50/75/50 38/78/38 49/90/49
f 14/91/14 36/92/36 54/39/54 31/18/31
f 3/93/3 28/3/28 54/36/54 36/94/36
f 28/85/28 52/79/52 31/81/31 54/95/54
f 2/96/2 21/97/21 55/43/55 27/98/27
f 19/99/19 41/100/41 55/40/55 21/101/21
f 41/83/41 53/82/53 27/86/27 55/102/55
f 18/103/18 9/104/9 56/45/56 40/14/40
f 12/105/12 39/12/39 56/9/56 9/106/9
f 39/77/39 51/76/51 40/84/40 56/107/56
